<?xml version="1.0" standalone="no"?>
<!DOCTYPE svg PUBLIC "-//W3C//DTD SVG 20010904//EN"
 "http://www.w3.org/TR/2001/REC-SVG-20010904/DTD/svg10.dtd">
<svg version="1.0" xmlns="http://www.w3.org/2000/svg"
 width="139.000000pt" height="139.000000pt" viewBox="0 0 139.000000 139.000000"
 preserveAspectRatio="xMidYMid meet">
<metadata>
Created by potrace 1.14, written by Peter Selinger 2001-2017
</metadata>
<g transform="translate(0.000000,139.000000) scale(0.100000,-0.100000)"
fill="#000000" stroke="none">
<path d="M295 1378 c-32 -17 -45 -39 -45 -75 0 -40 30 -73 68 -74 15 0 195 -1
401 -1 l374 -1 24 27 c31 37 29 71 -6 107 l-29 29 -384 0 c-258 -1 -390 -4
-403 -12z"/>
<path d="M847 1048 c-28 -26 -611 -923 -621 -956 -8 -25 16 -77 39 -86 9 -3
203 -6 430 -6 l413 0 27 32 c30 35 28 69 -6 103 -19 19 -35 20 -344 23 -324 3
-325 3 -314 23 6 12 108 170 227 352 318 489 306 464 257 512 -31 32 -76 33
-108 3z"/>
</g>
</svg>
